<?xml version="1.0" encoding="utf-8"?>
<!-- Generator: Adobe Illustrator 15.0.0, SVG Export Plug-In . SVG Version: 6.00 Build 0)  -->
<!DOCTYPE svg PUBLIC "-//W3C//DTD SVG 1.1//EN" "http://www.w3.org/Graphics/SVG/1.1/DTD/svg11.dtd">
<svg version="1.1" id="Ebene_1" xmlns="http://www.w3.org/2000/svg" xmlns:xlink="http://www.w3.org/1999/xlink" x="0px" y="0px"
	 width="180.336px" height="209.543px" viewBox="0 0 180.336 209.543" enable-background="new 0 0 180.336 209.543"
	 xml:space="preserve">
<g>
	<g>
		<g>
			<path fill="#F05440" d="M175.887,100.563c4.188-7.208,0.791-23.989,0.643-24.706c-0.029-0.139-0.115-0.26-0.238-0.331
				c-0.077-0.045-0.164-0.068-0.251-0.068c-0.052,0-0.104,0.008-0.153,0.024c-0.74,0.239-1.671,0.361-2.767,0.361
				c-6.052,0-15.466-3.667-17.509-4.494c7.75-30.438-15.693-47.909-15.932-48.083c-0.088-0.063-0.191-0.096-0.295-0.096
				c-0.07,0-0.14,0.015-0.205,0.044c-0.164,0.074-0.275,0.23-0.293,0.409c-0.011,0.11-1.207,11.092-14.791,16.839
				c-0.76,0.321-1.484,0.484-2.156,0.484c-1.19,0-2.235-0.494-3.194-1.511c-7.019-7.437-5.293-38.594-5.274-38.908
				c0.008-0.145-0.047-0.286-0.15-0.387C113.225,0.051,113.1,0,112.971,0c-0.015,0-0.027,0-0.041,0.001
				C80.904,2.639,69.635,18.836,62.903,28.514c-2.954,4.246-5.088,7.313-7.67,7.617c-0.276,0.033-0.543,0.048-0.803,0.048
				c-7.756,0-8.337-14.495-8.342-14.641c-0.005-0.165-0.092-0.316-0.231-0.405c-0.082-0.052-0.175-0.079-0.269-0.079
				c-0.066,0-0.133,0.013-0.196,0.04c-23.597,10.041-16.744,42.482-15.54,47.438H6.776c-0.211,0-0.399,0.132-0.471,0.331
				c-0.072,0.199-0.01,0.42,0.153,0.555c4.427,3.65,3.42,19.098,3.329,20.371c-11.233,25.714-12.805,48.146-4.671,66.669
				c8.311,18.926,24.795,28.644,32.451,32.296c-1.404-2.919-1.922-5.591-1.417-7.768c0.47-2.029,1.802-3.582,3.667-4.282
				c1.013-0.442,2.046-0.879,3.079-1.313c-5.455-4.543-12.502-12.14-15.122-22.563c-2.796-11.125-0.053-23.064,8.15-35.484
				c-0.052-9.311-0.836-19.622-2.023-20.222l-0.039-0.004c-0.264-0.028-0.46-0.258-0.446-0.524c0.014-0.265,0.234-0.473,0.5-0.473
				c0.022,0,20.563,2.264,20.563,2.264c1.573-4.112,16.467-40.854,46.932-41.854c0.006,0,0.012,0,0.019,0
				c0.131,0,0.256-0.016,0.35,0.076c0.099,0.096,0.152,0.195,0.15,0.333c-0.004,0.294-0.347,29.528,8.635,38.648
				c1.738,1.764,3.736,2.65,5.941,2.65c0.51,0,1.039-0.052,1.574-0.145c13.872-2.419,13.793-15.688,13.791-15.821
				c-0.003-0.2,0.113-0.385,0.296-0.466c0.065-0.029,0.136-0.044,0.204-0.044c0.124,0,0.247,0.046,0.341,0.134
				c0.241,0.224,24.067,22.764,23.404,51.937c-0.337,14.81-6.841,28.772-19.313,41.622c0.975,0.411,1.95,0.824,2.906,1.242
				c1.865,0.701,3.198,2.256,3.668,4.285c0.605,2.613-0.259,5.938-2.365,9.549h2.688c0.055,0,0.109-0.01,0.162-0.027
				c28.019-9.646,35.209-33.684,36.31-52.148C181.285,119.607,176.504,102.659,175.887,100.563z"/>
		</g>
		<g>
			<path fill="#F05440" d="M76.762,151.24c0,3.475-3.358,6.291-7.501,6.291h-0.998c-4.143,0-7.501-2.816-7.501-6.291v-26.416
				c0-3.475,3.358-6.292,7.501-6.292h0.998c4.143,0,7.501,2.817,7.501,6.292V151.24z"/>
		</g>
		<g>
			<path fill="#F05440" d="M119.762,151.24c0,3.475-3.357,6.291-7.5,6.291h-0.998c-4.144,0-7.502-2.816-7.502-6.291v-26.416
				c0-3.475,3.358-6.292,7.502-6.292h0.998c4.143,0,7.5,2.817,7.5,6.292V151.24z"/>
		</g>
	</g>
	<path fill="#F05440" d="M104.343,165.671c-0.51-0.471-1.024-1.062-1.543-1.552c-4.075-3.848-7.923-7.588-12.958-7.588h-0.16
		c-5.034,0-8.884,3.74-12.959,7.589c-0.519,0.489-1.032,1.026-1.542,1.499c-5.747,6.352-15.74,10.49-25.407,14.469
		c-2.259,0.93-4.589,1.902-6.813,2.87c0.118,1.317,1.375,5.169,6.952,10.751c4.806,4.749,18.23,15.833,38.694,15.832
		c0.36,0,0.724-0.01,1.087-0.01h0.068h0.068c0.364,0,0.726,0.013,1.087,0.013c20.466,0,33.89-11.08,38.71-15.845
		c5.563-5.567,6.816-9.411,6.936-10.729c-2.225-0.969-4.557-1.928-6.815-2.857C120.082,176.134,110.089,172.021,104.343,165.671z"/>
</g>
</svg>
